Patient4_TMGait_0pt6_01_right_12_EMG.mot
version=1
nRows=36
nColumns=33
inDegrees=no
endheader
time	1LAddLong	2LGlutMax	3LGlutMed	4LIliopsoas	5LSemiMemb	6LBicFemLong	7LRecFem	8LVastMed	9LVastLat	10LGasMed	11LTibAnt	12lTibPost	13LPeroneusLong	14LSol	15LExtDigLong	16LFlexDigLong	17RAddLong	18RGlutMax	19RGlutMed	20RIliopsoas	21RSemiMemb	22RBicFemLong	23RRecFem	24RVastMed	25RVastLat	26RGasMed	27RTibAnt	28RTibPost	29RPeroneusLong	30RSol	31RExtDigLong	32RFlexDigLong
14.81	0.016632	0.006104	0.049438	0.011902	0.14282	-0.41718	0.048676	-0.014496	-0.040894	0.037384	0.27863	0.002441	-0.39291	-0.10071	0.4837	-0.005035	0.001221	0.097351	-0.056305	-0.057373	0.08606	-0.10849	-0.21942	-0.011597	0.055542	0.007172	0.23956	0.009308	-1.1017	-0.20828	-0.003662	-0.012512
14.811	0	-0.019379	0.008087	0.01297	0.11734	-0.047302	0.037384	0.000763	-0.16266	0.068207	0.23331	0.005035	-0.27069	-0.17136	0.16525	-0.008392	-0.016785	0.049744	-0.12787	-0.015564	0.11505	-0.027313	-0.24704	0.025024	0.056305	-0.000916	-0.16754	0.011292	0.67017	-0.1387	-0.000763	-0.00824
14.812	-0.005646	-0.020142	0.003662	0.005493	0.066528	0.001526	-0.020294	-0.010376	-0.15671	0.065765	-0.11749	0.000916	0.3392	-0.08667	0.83313	0.005188	-0.003815	-0.015411	-0.069275	-0.046997	0.093689	0.02243	-0.20401	0.018311	0.00946	-0.007629	-0.35782	0.003815	1.0544	-0.43793	-0.001678	-0.010223
14.813	-0.008545	-0.038605	0.025024	0.005035	0.007172	-0.34515	-0.12344	-0.009003	-0.07782	0.03067	-0.15259	0.006104	0.020752	-0.035553	-0.041199	0.019226	-0.00824	-0.046539	-0.098267	-0.051727	0.056763	0.005188	-0.18173	-0.018311	0.002136	-0.009918	-0.2243	-0.063171	-1.0265	-0.53665	-0.00473	-0.012665
14.814	-0.001678	-0.016022	0.015564	-0.005188	-0.02243	-0.39642	-0.18906	-0.00885	-0.12039	-0.025787	-0.16281	0.003662	-0.091248	0.072021	-0.72083	0.018158	-0.022278	-0.035095	-0.19699	-0.035095	0.051422	-0.040894	-0.19302	-0.020447	-0.001984	-0.00412	-0.027771	-0.050507	-2.9442	0.029602	-0.001831	-0.011749
14.815	0.007782	-0.076141	0.001526	0.001221	0.080261	-0.34393	-0.14191	-0.023499	-0.063171	-0.065918	-0.2446	0.009003	-0.018463	0.032959	0.074463	0.003967	-0.010071	-0.014191	0.11627	-0.057678	0.076752	-0.066833	-0.18524	-0.002899	-0.009918	-0.007019	0.037384	0.032654	-0.040131	0.29541	-0.002441	-0.012054
14.816	0.007477	-0.043488	-0.005493	0.008087	0.112	-0.22156	0.016785	-0.024414	-0.058594	-0.070953	-0.22675	0.003204	0.31708	-0.021057	-0.43625	0.001984	-0.004425	-0.048981	0.38376	-0.15701	0.064697	-0.097046	-0.23758	0.02594	0.004272	-0.00412	0.006866	0.013733	0.93887	0.094757	0.005798	-0.014648
14.817	0.008545	-0.035553	-0.007019	0.012512	0.03952	-0.052185	0.14481	-0.027313	-0.059204	-0.007324	-0.13458	0.013428	-0.085449	-0.014343	-0.22827	0.002289	-0.015564	-0.059967	0.70267	-0.14175	0.070953	-0.083923	-0.25024	0.042267	-0.014191	0.002747	-0.017242	0.003052	-0.15335	-0.068359	-0.000458	-0.00473
14.818	-0.001526	-0.049896	-0.003357	0.006409	-0.059967	0.1329	0.15366	-0.013275	-0.065002	0.037994	-0.067596	0.008392	0.028076	-0.027466	-0.22995	-0.003052	-0.010986	-0.047913	0.014191	-0.10956	0.080719	-0.032959	-0.22492	-0.001678	-0.013275	-0.000763	-0.10513	-0.000916	-0.19547	-0.037384	-0.00061	-0.012817
14.819	-0.015717	-0.041351	0.013733	0.018005	-0.050049	0.13062	0.094452	0.00061	-0.067139	0.065308	-0.055237	0.005188	0.12039	-0.066986	-0.26672	0.003204	0.007477	-0.088348	0.23392	-0.10819	0.067291	-0.066528	-0.18539	0.000763	-0.029755	-0.016022	-0.24506	-0.005646	1.1569	0.13977	0.002441	-0.017242
14.82	-0.013275	-0.03006	0.002594	0.031433	0.024872	0.021362	0.039063	0.006256	-0.09201	0.060425	-0.07309	0.00351	0.1001	-0.1944	-0.20111	-0.003815	0.003967	-0.090332	0.40314	0.030518	0.056763	-0.08606	-0.19196	0.00946	-0.049133	0.000305	-0.13397	-0.001068	1.0939	0.24933	-0.003052	-0.008087
14.821	0.005798	-0.047913	-0.023956	0.001831	0.033112	-0.00061	0.000458	0.007477	-0.00412	0.053101	-0.006866	0.001984	0.002136	-0.24551	-0.11231	0.002289	-0.004578	-0.080261	-0.063324	0.1474	0.044403	-0.067291	-0.17395	0.007324	-0.024872	0.036163	0.077515	-0.005798	-0.32638	0.15182	-0.00412	-0.006256
14.822	0.028229	-0.06012	0.010529	0.006714	0.11078	-0.063934	-0.080719	0.006714	0.19547	0.058441	0.006714	0.000458	0.007782	-0.14084	0.006561	0.033264	0.008392	-0.082855	-0.11154	0.042877	0.019073	-0.11322	-0.17425	-0.006561	-0.032959	0.058746	0.088654	-0.007477	-0.88089	0.027161	0.000763	-0.003204
14.823	0.035248	-0.046082	0.01297	0.000305	0.21057	-0.003815	-0.039673	0.018158	0.2887	0.046692	-0.009918	0.002594	0.005951	-0.047607	0.042267	-0.004883	0.00824	-0.091095	-0.22125	-0.055084	0.010223	-0.16113	-0.16663	-0.039368	-0.026093	0.07019	-0.018005	-0.00473	-0.12238	0.10574	-0.002136	-0.008087
14.824	0.010071	-0.081024	-0.022583	-0.001373	0.14648	0.10819	-0.044403	0.017548	0.31525	0.024261	0.03067	0.009155	-0.002289	-0.037231	0.019836	0.024567	-0.000305	-0.12741	-0.16861	-0.035248	0.066223	-0.15259	-0.18494	-0.016785	-0.014648	0.061493	-0.11444	0.001373	0.23499	0.046997	-0.00351	-0.006409
14.825	-0.003967	-0.061493	-0.046082	0.003967	0.036774	0.17654	-0.046844	0.015564	0.2771	0.024872	-0.011902	-0.001068	0.01236	-0.017242	0.011749	0.02533	0.007935	-0.14328	0.059357	0.14252	0.13794	-0.20004	-0.15808	-0.026855	-0.001678	0.06012	-0.061188	-0.006561	-0.5307	-0.073395	-0.002136	-0.016479
14.826	-0.002441	-0.002289	-0.026398	0.003967	0.007477	0.15366	-0.020752	0.013275	0.080261	0.014648	0.036926	0.010376	0.024719	0.00824	0.053864	0.026855	0.020294	-0.10437	-0.02243	0.13519	0.15656	-0.10849	-0.1355	-0.067139	-0.006561	-0.011444	-0.015106	-0.012054	-0.81863	0.033417	-0.001068	-0.006561
14.827	-0.000458	0.025177	-0.032959	0.011444	-0.01358	0.081177	-0.037231	0.009766	-0.10605	0.029297	0.052795	0.005646	-0.001221	0.050201	0.097198	0.035706	0.013733	-0.10712	-0.056915	0.03067	0.15167	-0.021057	-0.11749	-0.10147	-0.00473	-0.049133	-0.050201	-0.012512	-0.68039	0.14633	-0.002289	-0.009003
14.828	-0.004272	0.048523	0.016937	-0.001373	-0.050049	0.071259	-0.071869	0.00885	-0.23361	0.039215	0.017853	0.006714	-0.028076	0.068817	0.10696	0.023651	0.009308	-0.14328	0.007477	-0.027618	0.16907	-0.005341	-0.04776	-0.10849	-0.002289	-0.12772	-0.032349	-0.026093	-0.049133	0.02533	-0.003204	-0.010071
14.829	-0.011597	0.039215	0.041809	0.003967	-0.020905	0.069122	0.017548	-0.015869	-0.25452	0.045013	0.037384	0.008392	-0.034943	0.080566	0.11002	0.028839	0.002594	-0.13779	0.075989	0.038452	0.15381	-0.071869	-0.071869	-0.090332	-0.013733	-0.14496	-0.014496	-0.046692	0.20859	0.00473	-0.002899	-0.011749
14.83	0.007477	0.082092	0.006866	0.023651	-0.084229	0.097504	0.066071	-0.022736	-0.30731	0.051727	0.054169	0.00473	-0.041046	0.12741	0.092163	0.031433	-0.003052	-0.12054	0.040588	0.074921	0.12802	-0.028534	-0.075989	-0.044861	0.001068	-0.044098	-0.010834	-0.013885	0.055237	0.13153	-0.010834	-0.024414
14.831	0.03952	0.11337	0.035095	0.020752	-0.057831	0.093842	-0.005798	-0.021973	-0.31677	0.048981	0.11612	0.001221	-0.069122	0.12619	0.057983	0.024261	0.003662	-0.089111	-0.020142	0.017853	0.09903	0.04364	-0.086823	-0.06073	-0.015106	-0.026245	0.016937	0.019073	0.008392	0.22568	0.000305	-0.025024
14.832	0.059052	0.13001	-0.013428	0.000458	0.010681	0.073547	0.004883	-0.00351	-0.32166	0.024567	0.1207	0.013275	-0.065613	0.12787	0.037842	0.028381	0.00824	-0.11093	-0.018005	-0.066223	0.051575	0.10819	-0.089417	-0.078888	-0.008698	-0.091095	0.091095	-0.036774	0.2298	0.42206	-0.003357	-0.026703
14.833	0.055084	0.13931	-0.006104	0.031281	0.043182	0.077515	-0.037231	0.015259	-0.062714	0.007782	0.078278	0.006561	-0.043793	0.15579	0.020142	0.028381	0.014343	-0.11063	-0.11231	-0.081329	0.04715	0.08606	-0.09079	-0.038757	-0.001221	-0.012817	0.14496	-0.3421	0.61371	0.44922	-0.002441	-0.024261
14.834	0.038605	0.14236	-0.032959	0.042267	0.011139	0.073242	-0.051727	0.011444	0.1152	-0.004578	0.016479	0.001373	-0.07019	0.1648	0.042267	0.012054	0.014954	-0.059509	-0.2272	-0.064087	0.058746	0.083771	-0.12421	-0.009003	0.002899	0.010681	0.14603	0.15533	0.45197	0.43884	-0.001831	-0.021973
14.835	0.00824	0.13275	-0.031738	0.04303	-0.035858	0.1001	0.055847	0.00412	0.2742	-0.012817	-0.037079	0.013275	-0.073395	0.16113	0.032654	-0.007935	0.013733	-0.11261	0.18814	0.059357	0.056305	0.14389	-0.10437	-0.019836	0.010834	0.046692	0.072021	0.29923	0.26184	-0.2858	0	-0.019836
14.836	0.006866	0.13321	0.007172	0.022125	-0.048523	0.1355	0.05661	0.009918	0.30579	-0.016174	-0.13565	-0.009766	-0.041199	0.14023	0.039063	-0.018768	0.005188	-0.11078	0.63202	0.11322	0.046692	0.10162	-0.13794	0.002899	0.01358	0.075684	0.018005	0.041809	-0.21713	-1.2531	-0.004272	-0.009308
14.837	0.015564	0.12085	0.054626	-0.009918	-0.031128	0.098267	-0.089417	0.013885	0.45944	-0.018158	-0.19134	-0.002899	-0.041809	0.14877	0.055389	-0.021362	0.0177	-0.12726	0.2298	0.14023	0.064087	0.024261	-0.079193	-0.02121	0.011597	0.057068	0.002441	0.001984	-0.33218	-1.3503	-0.005493	-0.013123
14.838	0.023956	0.15488	0.036926	0.003052	0.008392	-0.11688	-0.11093	0.015106	0.36575	-0.012817	-0.14618	-0.013275	-0.091705	0.14358	0.10559	-0.036316	-0.000153	-0.13855	-0.26779	0.089569	0.079956	-0.068054	-0.11368	-0.021667	-0.004578	0.086975	0.030975	0.004578	-0.44342	-0.81406	-0.003967	-0.005035
14.839	0.033875	0.14328	0.021362	0.020447	0.048828	-0.24933	-0.084381	0.011292	0.22507	-0.021057	0.019684	-0.00412	-0.1062	0.15152	0.030975	-0.043335	-0.011292	-0.096588	0.09964	-0.012054	0.078735	-0.10834	-0.079346	-0.042572	0.002747	0.05127	0.06546	0.040588	-0.37888	0.11215	-0.001831	-0.005951
14.84	0.024109	0.15823	0.00412	0.023956	0.045471	-0.14816	-0.000916	0.019989	0.019684	-0.027466	0.029449	0.001831	-0.092468	0.18845	0.040283	-0.038757	-0.019226	-0.078278	0.54565	-0.007019	0.13229	-0.12054	-0.097961	-0.016479	-0.012817	0.029144	0.009155	0.013275	-0.003662	0.3537	-0.002594	-0.008087
14.841	-0.009613	0.15152	0.019836	0.012207	0.017548	-0.011292	0.093689	0.019226	-0.061951	-0.011597	-0.00351	0.005341	-0.10437	0.22537	0.11307	-0.046844	-0.031891	-0.12222	0.23148	0.029602	0.14999	-0.07019	-0.10498	-0.045013	-0.002594	0.017548	-0.031738	-0.37293	0.21515	0.052338	0.003967	-0.009766
14.842	-0.017548	0.14664	0.000305	0.003662	0.012512	0.080872	0.05661	0.031586	-0.21881	-0.006256	0.028381	0.012207	-0.1506	0.21149	-0.097961	-0.032654	-0.01236	-0.13046	-0.11734	0.039673	0.13565	-0.016327	-0.13733	-0.036469	-0.002136	-0.050659	-0.019989	-0.58304	0.1088	-0.16327	-0.001221	-0.009918
14.843	-0.022125	0.12436	-0.003052	0.004272	-0.014954	0.13611	0.051422	0.015106	-0.40298	-0.009155	-0.006561	0.001984	-0.20477	0.17822	-0.054321	-0.049286	0.003967	-0.22873	-0.21774	0.025787	0.10773	0.046082	-0.10223	-0.054779	-0.019684	-0.025024	-0.018921	-0.005951	-0.10605	0.26962	-0.004272	-0.021515
14.844	-0.024109	0.10147	-0.005951	0.006409	-0.030823	0.15671	0.041351	0.001831	-0.6546	-0.00946	0.000763	0.011139	-0.18845	0.17929	-0.18753	-0.056	0.030518	-0.1944	0.054626	-0.010071	0.094299	0.023804	-0.11429	-0.031281	-0.007019	0.001678	0.002136	0.27512	0.064545	0.20477	-0.002747	-0.02655
14.845	-0.03006	0.098877	-0.012512	0.027771	-0.047607	0.18951	0.05249	-0.006561	-0.70221	-0.008087	-0.023651	-0.000153	-0.17624	0.10574	0.11215	-0.046539	0.037384	-0.19959	0.056915	0.00946	0.077972	0.058441	-0.12329	-0.033417	0.002594	0.021362	0.002136	0.30792	0.33859	0.28564	-0.001221	-0.030365
